<?xml version="1.0" encoding="UTF-8"?>
<svg width="98px" height="33px" viewBox="0 0 98 33" version="1.1" xmlns="http://www.w3.org/2000/svg" xmlns:xlink="http://www.w3.org/1999/xlink">
    <title>Group 24</title>
    <g id="Page-1" stroke="none" stroke-width="1" fill="none" fill-rule="evenodd">
        <g id="iPhone-SE-Copy-4" transform="translate(-15.000000, -780.000000)" fill="#FEFEFE">
            <g id="Group-24" transform="translate(15.000000, 780.000000)">
                <path d="M0,32.2560207 L96.904907,32.2560207 L96.904907,0.000227586207 L0,0.000227586207 L0,32.2560207 Z M0.569767442,31.6870552 L96.334,31.6870552 L96.334,0.569193103 L0.569767442,0.569193103 L0.569767442,31.6870552 Z" id="Fill-1"></path>
                <polygon id="Fill-2" points="78.2907186 22.2833069 78.1528349 26.2046172 77.9705093 26.2046172 77.8565558 22.2833069 77.2355093 3.60872069 75.2242302 3.60872069 76.2805791 28.3826172 78.9960907 28.3826172 80.656393 3.60872069 79.3345326 3.60872069"></polygon>
                <g id="Group-23" transform="translate(14.813953, 2.669814)">
                    <path d="M51.5026465,23.1678207 C51.5026465,24.4616483 51.3624837,24.6710276 50.3369023,24.6710276 L49.9688326,24.6710276 L49.9688326,1.97954483 L50.3369023,1.97954483 C51.3624837,1.97954483 51.5026465,2.18892414 51.5026465,3.48275172 L51.5026465,23.1678207 Z M51.1642047,0.938337931 L48.0703674,0.938337931 L48.0703674,25.7122345 L51.1642047,25.7122345 C53.0786233,25.7122345 53.4033907,25.0647517 53.4033907,23.2645448 L53.4033907,3.38488966 C53.4033907,1.58468276 53.0786233,0.938337931 51.1642047,0.938337931 L51.1642047,0.938337931 Z" id="Fill-3"></path>
                    <polygon id="Fill-5" points="55.3597442 25.7125759 59.0324651 25.7125759 59.0324651 24.5871621 57.2718837 24.5871621 57.2718837 12.7560931 58.7783488 12.7560931 58.7783488 11.6318172 57.2718837 11.6318172 57.2718837 2.0640931 59.0324651 2.0640931 59.0324651 0.93867931 55.3597442 0.93867931"></polygon>
                    <path d="M2.95230698,13.6282034 L3.42179535,6.37616897 L3.56195814,2.98968621 L3.71579535,2.98968621 L3.78644651,6.37616897 L4.16249302,13.6282034 L2.95230698,13.6282034 Z M2.70502791,0.939134483 L0.902283721,25.713031 L2.16944651,25.713031 L2.88279535,14.6955828 L4.21605116,14.6955828 L4.7858186,25.713031 L6.79823721,25.713031 L5.39205116,0.939134483 L2.70502791,0.939134483 Z" id="Fill-7"></path>
                    <polygon id="Fill-9" points="26.9070395 0.93867931 25.0062953 0.93867931 25.0062953 25.7125759 28.931993 25.7125759 28.931993 24.4335414 26.9070395 24.4335414"></polygon>
                    <polygon id="Fill-11" points="29.9182605 25.7125759 33.5887023 25.7125759 33.5887023 24.5871621 31.8304 24.5871621 31.8304 12.7560931 33.3368651 12.7560931 33.3368651 11.6318172 31.8304 11.6318172 31.8304 2.0640931 33.5887023 2.0640931 33.5887023 0.93867931 29.9182605 0.93867931"></polygon>
                    <polygon id="Fill-13" points="15.1154744 1.95109655 16.7472884 1.95109655 16.7472884 25.7122345 18.6480326 25.7122345 18.6480326 1.95109655 20.278707 1.95109655 20.278707 0.938337931 15.1154744 0.938337931"></polygon>
                    <path d="M21.5320814,23.6456379 C20.8848256,23.6456379 20.3640581,24.1668103 20.3640581,24.8108793 C20.3640581,25.4595 20.8848256,25.9783966 21.5320814,25.9783966 C22.1793372,25.9783966 22.6978256,25.4595 22.6978256,24.8108793 C22.6978256,24.1668103 22.1793372,23.6456379 21.5320814,23.6456379" id="Fill-15"></path>
                    <path d="M38.6828791,10.6494414 C38.6828791,11.4357517 38.6828791,11.6599241 38.1222279,11.7156828 L37.1228558,11.7156828 L37.1228558,1.96475172 L38.1062744,1.96475172 C38.5586698,1.96475172 38.6828791,2.17526897 38.6828791,2.73854483 L38.6828791,10.6494414 Z M38.6828791,23.8585448 C38.6714837,24.5322 38.6008326,24.6710276 38.0641116,24.6710276 L37.1228558,24.6710276 L37.1228558,12.7432345 L38.0800651,12.7432345 C38.6133674,12.7432345 38.6828791,13.1358207 38.6828791,13.8390621 L38.6828791,23.8585448 Z M39.332414,0.938337931 L35.2221116,0.938337931 L35.2221116,25.7122345 L39.2321349,25.7122345 C40.4434605,25.7122345 40.5699488,25.1910621 40.5836233,24.1225448 L40.5836233,14.4421655 C40.5836233,13.0516138 40.329507,12.5600276 39.9386465,12.3347172 C40.4719488,12.0673034 40.5836233,11.6735793 40.5836233,10.8167172 L40.5836233,2.48592414 C40.5836233,1.58468276 40.2474605,0.938337931 39.332414,0.938337931 L39.332414,0.938337931 Z" id="Fill-17"></path>
                    <path d="M12.0485302,12.4197207 C12.0485302,13.206031 12.0063674,13.5997552 11.3853209,13.5997552 L10.5420651,13.5997552 L10.5420651,1.96441034 L10.880507,1.96441034 C11.9060884,1.96441034 12.0485302,2.17492759 12.0485302,3.46875517 L12.0485302,12.4197207 Z M11.7237628,0.939134483 L8.64132093,0.939134483 L8.64132093,25.713031 L10.5420651,25.713031 L10.5420651,14.6113759 L11.3716465,14.6113759 C11.9642047,14.6113759 12.0485302,15.0062379 12.0485302,15.7060655 L12.0485302,25.713031 L13.9469953,25.713031 L13.9469953,16.2135828 C13.9469953,14.8218931 13.7908791,14.3735483 13.2575767,14.1061345 C13.8774837,13.768169 13.9469953,13.4449966 13.9469953,11.9827552 L13.9469953,3.38568621 C13.9469953,1.58547931 13.6222279,0.939134483 11.7237628,0.939134483 L11.7237628,0.939134483 Z" id="Fill-19"></path>
                    <polygon id="Fill-21" points="42.764807 25.7125759 46.4375279 25.7125759 46.4375279 24.5871621 44.6792256 24.5871621 44.6792256 12.7560931 46.1834116 12.7560931 46.1834116 11.6318172 44.6792256 11.6318172 44.6792256 2.0640931 46.4375279 2.0640931 46.4375279 0.93867931 42.764807 0.93867931"></polygon>
                </g>
            </g>
        </g>
    </g>
</svg>