<?xml version="1.0" encoding="UTF-8"?>
<svg width="17px" height="18px" viewBox="0 0 17 18" version="1.1" xmlns="http://www.w3.org/2000/svg" xmlns:xlink="http://www.w3.org/1999/xlink">
    <title>Combined Shape</title>
    <g id="Page-1" stroke="none" stroke-width="1" fill="none" fill-rule="evenodd">
        <g id="iPhone-SE-Copy-5" transform="translate(-151.000000, -28.000000)" fill="#FFFFFF">
            <g id="cancel" transform="translate(140.000000, 17.000000)">
                <path d="M13.4007999,12.1414564 L19.6625988,18.4025632 L25.9255014,12.1414564 C26.3160257,11.7509321 26.9491907,11.7509321 27.339715,12.1414564 L27.7418093,12.5435507 C28.1323336,12.934075 28.1323336,13.56724 27.7418093,13.9577643 L21.4795988,20.2195632 L27.7418093,26.4824658 C28.1323336,26.8729901 28.1323336,27.5061551 27.7418093,27.8966794 L27.339715,28.2987737 C26.9491907,28.689298 26.3160257,28.689298 25.9255014,28.2987737 L19.6625988,22.0365632 L13.4007999,28.2987737 C13.0102756,28.689298 12.3771106,28.689298 11.9865863,28.2987737 L11.584492,27.8966794 C11.1939677,27.5061551 11.1939677,26.8729901 11.584492,26.4824658 L17.8455988,20.2195632 L11.584492,13.9577643 C11.1939677,13.56724 11.1939677,12.934075 11.584492,12.5435507 L11.9865863,12.1414564 C12.3771106,11.7509321 13.0102756,11.7509321 13.4007999,12.1414564 Z" id="Combined-Shape"></path>
            </g>
        </g>
    </g>
</svg>