<?xml version="1.0" encoding="UTF-8"?>
<svg width="300px" height="300px" viewBox="0 0 300 300" version="1.1" xmlns="http://www.w3.org/2000/svg" xmlns:xlink="http://www.w3.org/1999/xlink">
    <title>Group 7</title>
    <defs>
        <linearGradient x1="22.2370062%" y1="17.7234927%" x2="81.1039501%" y2="86.1600832%" id="linearGradient-1">
            <stop stop-color="#FBB31D" offset="0%"></stop>
            <stop stop-color="#F7831D" offset="100%"></stop>
        </linearGradient>
        <linearGradient x1="9.7153588%" y1="92.6718479%" x2="68.007106%" y2="-5.66633437%" id="linearGradient-2">
            <stop stop-color="#FFFFFF" offset="15%"></stop>
            <stop stop-color="#000000" offset="85%"></stop>
        </linearGradient>
        <linearGradient x1="9.7153588%" y1="92.6718479%" x2="68.007106%" y2="-5.66633437%" id="linearGradient-3">
            <stop stop-color="#27AAE1" stop-opacity="0" offset="49%"></stop>
            <stop stop-color="#262262" offset="100%"></stop>
        </linearGradient>
    </defs>
    <g id="Page-1" stroke="none" stroke-width="1" fill="none" fill-rule="evenodd">
        <g id="main" transform="translate(-10.000000, -969.000000)" fill-rule="nonzero">
            <g id="Ресурс-13" transform="translate(10.000000, 969.000000)">
                <circle id="Oval" fill="url(#linearGradient-1)" cx="150" cy="150" r="150"></circle>
                <circle id="Oval" fill="#231F20" cx="150" cy="150" r="54.1139241"></circle>
                <path d="M228.797468,22.4672228 L60.9706854,270.56962 C54.925584,266.080106 49.2170197,261.154689 43.8906652,255.832777 C-14.6302217,197.33405 -14.6302217,102.444977 43.8906652,43.9711753 C94.0523159,-6.28364278 170.999677,-13.4744748 228.797468,22.4672228 Z" id="Path" fill="url(#linearGradient-2)" opacity="0.38" style="mix-blend-mode: screen;"></path>
                <path d="M228.797468,22.4672228 L60.9706854,270.56962 C54.925584,266.080106 49.2170197,261.154689 43.8906652,255.832777 C-14.6302217,197.33405 -14.6302217,102.444977 43.8906652,43.9711753 C94.0523159,-6.28364278 170.999677,-13.4744748 228.797468,22.4672228 Z" id="Path" fill="url(#linearGradient-3)" opacity="0.38" style="mix-blend-mode: multiply;"></path>
            </g>
        </g>
    </g>
</svg>