<?xml version="1.0" encoding="UTF-8"?>
<svg width="116px" height="41px" viewBox="0 0 116 41" version="1.1" xmlns="http://www.w3.org/2000/svg" xmlns:xlink="http://www.w3.org/1999/xlink">
    <title>Group 21</title>
    <defs>
        <polygon id="path-1" points="0.000558385093 0.414692654 115.789897 0.414692654 115.789897 39.5202399 0.000558385093 39.5202399"></polygon>
    </defs>
    <g id="Page-1" stroke="none" stroke-width="1" fill="none" fill-rule="evenodd">
        <g id="iPhone-SE-Copy-4" transform="translate(-14.000000, -11.000000)">
            <g id="Group-21" transform="translate(14.000000, 11.000000)">
                <polygon id="Fill-1" fill="#FFFFFF" points="10.5585037 2.03989205 10.5585037 10.4242999 1.96495714 2.03989205 1.02687019 2.03989205 1.02687019 16.1335052 3.90627598 16.1335052 3.90627598 7.72678861 12.4346776 16.1335052 13.4397708 16.1335052 13.4397708 2.03989205"></polygon>
                <g id="Group-20" transform="translate(0.000000, 0.065439)">
                    <mask id="mask-2" fill="white">
                        <use xlink:href="#path-1"></use>
                    </mask>
                    <g id="Clip-3"></g>
                    <path d="M16.6919917,16.068066 L19.7947516,16.068066 L19.7947516,4.96383808 L16.6919917,4.96383808 L16.6919917,16.068066 Z M18.2312733,0.414692654 C19.2363665,0.414692654 20.0181056,1.19550225 20.0181056,2.17709145 C20.0181056,3.15682159 19.2363665,3.95994003 18.2312733,3.95994003 C17.2503768,3.95994003 16.4463023,3.17913043 16.4463023,2.17709145 C16.4463023,1.19550225 17.2503768,0.414692654 18.2312733,0.414692654 L18.2312733,0.414692654 Z" id="Fill-2" fill="#FFFFFF" mask="url(#mask-2)"></path>
                    <path d="M25.2455207,10.5594543 C25.2455207,12.2753763 26.0924048,13.8593043 27.9685787,13.8593043 C29.0388168,13.8593043 30.1779224,13.4354363 30.8926553,12.2549265 L30.8926553,8.28581109 C30.0215745,7.48269265 28.9960072,7.08113343 28.0579203,7.08113343 C26.159411,7.08113343 25.2455207,8.44197301 25.2455207,10.5594543 L25.2455207,10.5594543 Z M31.317028,4.96365217 L33.8837381,4.96365217 L33.8837381,14.3054813 C33.8390673,18.6315382 30.9819969,20.392078 27.6782184,20.392078 C25.9137215,20.392078 24.5959327,20.0574453 23.5256946,19.4327976 L23.5256946,16.7352864 C24.7764772,17.4045517 25.9137215,17.7614933 27.3655228,17.7614933 C28.5269638,17.7614933 30.8926553,17.649949 30.8926553,14.9078201 C29.8652267,15.8894093 28.7261211,16.2909685 27.2985166,16.2909685 C23.9724027,16.2909685 22.1408996,13.6808336 22.1408996,10.4702189 C22.1408996,6.50110345 24.99797,4.5844018 27.544206,4.5844018 C28.9066656,4.5844018 30.267264,5.0751964 31.1383447,6.18877961 L31.317028,4.96365217 Z" id="Fill-4" fill="#FFFFFF" mask="url(#mask-2)"></path>
                    <path d="M36.8820799,0.971670165 L39.9420302,0.971670165 L39.9420302,6.47823688 C40.8559205,5.00771214 42.1271772,4.58384408 43.5138335,4.58384408 C45.8776638,4.58384408 47.4188066,6.00975112 47.4188066,8.70912144 L47.4188066,16.0673223 L44.3607176,16.0673223 L44.3607176,9.26498351 C44.3607176,7.52675262 43.4673014,7.08057571 42.3505313,7.08057571 C41.324964,7.1251934 40.4315478,7.68291454 39.9420302,8.66450375 L39.9420302,16.0673223 L36.8820799,16.0673223 L36.8820799,0.971670165 Z" id="Fill-5" fill="#FFFFFF" mask="url(#mask-2)"></path>
                    <path d="M50.2420017,2.84449775 L53.3000907,1.8405997 L53.3000907,4.96383808 L56.7155462,4.96383808 L56.7155462,7.32671664 L53.3000907,7.32671664 L53.3000907,12.2755622 C53.3224261,13.2125337 53.813805,13.5694753 54.8617077,13.5694753 C55.3754219,13.5694753 55.9561424,13.5025487 56.4475213,13.2125337 L56.4475213,15.778051 C55.7997946,16.1554423 54.9510493,16.3562219 53.813805,16.3562219 C51.5579292,16.3562219 50.2420017,15.3095652 50.2420017,12.8109745 L50.2420017,2.84449775 Z" id="Fill-6" fill="#FFFFFF" mask="url(#mask-2)"></path>
                    <polygon id="Fill-7" fill="#FFFFFF" mask="url(#mask-2)" points="68.4403302 1.97482459 71.4537484 1.97482459 71.4537484 16.0665787 68.4403302 16.0665787 68.4403302 10.3592324 62.1454689 10.3592324 62.1454689 16.0665787 59.1320507 16.0665787 59.1320507 1.97482459 62.1454689 1.97482459 62.1454689 7.63755322 68.4403302 7.63755322"></polygon>
                    <path d="M81.3693648,11.2729655 C80.8351764,10.9383328 80.1427789,10.7598621 79.3387043,10.7598621 C77.7324166,10.7598621 76.9730128,11.3398921 76.9730128,12.5668786 C76.9730128,13.4127556 77.5984041,14.0597121 78.6928389,14.0597121 C79.6960708,14.0597121 80.7886443,13.5242999 81.3693648,12.5445697 L81.3693648,11.2729655 Z M82.1064331,16.0675082 L81.8160729,14.5281979 C80.7458348,15.8890375 79.539723,16.3110465 77.551872,16.3110465 C75.1880418,16.3110465 73.8907271,14.5281979 73.8907271,12.631946 C73.8907271,9.80058171 76.1242675,8.73161619 78.6686422,8.73161619 C79.5620584,8.73161619 80.701164,8.88777811 81.3693648,9.15548426 L81.3693648,8.75392504 C81.3693648,7.37077661 80.1874497,7.05845277 79.1153503,7.05845277 C77.3061826,7.05845277 75.9455843,7.48232084 75.0968389,7.90618891 L75.0968389,5.23098651 C76.3476215,4.82942729 77.8422323,4.60633883 79.539723,4.60633883 C82.1957747,4.60633883 84.3176381,5.65485457 84.3176381,9.13317541 L84.3176381,16.0675082 L82.1064331,16.0675082 Z" id="Fill-8" fill="#FFFFFF" mask="url(#mask-2)"></path>
                    <polygon id="Fill-9" fill="#FFFFFF" mask="url(#mask-2)" points="91.5464915 16.0667646 90.342241 16.0667646 85.2739656 4.96253673 88.4213963 4.96253673 90.9452969 11.249913 93.6013487 4.96253673 94.7162576 4.96253673 97.3741706 11.249913 99.8943487 4.96253673 103.043641 4.96253673 97.9753652 16.0667646 96.7711147 16.0667646 94.1802079 9.62322639"></polygon>
                    <polygon id="Fill-10" fill="#FFFFFF" mask="url(#mask-2)" points="104.718982 0.971670165 107.821742 0.971670165 107.821742 9.33376912 108.603481 9.33376912 111.99474 4.96309445 115.633549 4.96309445 111.213001 10.3134993 115.789897 16.0673223 112.041272 16.0673223 108.402462 11.362015 107.821742 11.362015 107.821742 16.0673223 104.718982 16.0673223"></polygon>
                    <path d="M9.9789,28.3277061 C9.3535087,28.06 7.30051284,27.3907346 5.58254803,27.3907346 C4.28523333,27.3907346 3.14798903,27.5468966 3.14798903,28.9969715 C3.14798903,31.8952624 10.8276453,29.5546927 10.8276453,35.0612594 C10.8276453,38.3164918 8.39308634,39.5211694 5.37966812,39.5211694 C3.63936791,39.5211694 1.85439689,39.1865367 0.400734369,38.5172714 L0.400734369,35.552054 C1.56403665,36.1543928 3.43834928,36.7790405 5.06697246,36.7790405 C6.78679855,36.7790405 7.6802147,36.3533133 7.6802147,35.1058771 C7.6802147,32.2745127 0.000558385093,34.7061769 0.000558385093,29.2423688 C0.000558385093,25.9425187 2.52259772,24.7824588 5.60302215,24.7824588 C7.03248799,24.7824588 8.7951236,25.0947826 9.9789,25.5632684 L9.9789,28.3277061 Z" id="Fill-11" fill="#FFFFFF" mask="url(#mask-2)"></path>
                    <path d="M15.6228704,33.4565097 C15.6228704,35.2635262 16.447419,36.9571394 18.5022762,36.9571394 C20.7116199,36.9571394 21.4263528,35.2170495 21.4263528,33.6554303 C21.4263528,31.8725817 20.5776075,30.1771094 18.5022762,30.1771094 C16.3152679,30.1771094 15.6228704,31.9171994 15.6228704,33.4565097 M12.4531043,33.6349805 C12.4531043,30.2235862 14.7071188,27.6357601 18.5022762,27.6357601 C22.6101292,27.6357601 24.5756447,30.4466747 24.5756447,33.4992684 C24.5756447,36.8902129 22.3197689,39.4984888 18.5022762,39.4984888 C14.439094,39.4538711 12.4531043,36.7117421 12.4531043,33.6349805" id="Fill-12" fill="#FFFFFF" mask="url(#mask-2)"></path>
                    <polygon id="Fill-13" fill="#FFFFFF" mask="url(#mask-2)" points="26.8974099 39.1205397 30.0001698 39.1205397 30.0001698 24.0248876 26.8974099 24.0248876"></polygon>
                    <path d="M43.3312416,39.1190525 L40.6528545,39.1190525 L40.5635128,37.312036 L40.4741712,37.312036 C39.7352416,38.9628906 38.2629663,39.4983028 36.699488,39.4983028 C34.3337965,39.4983028 32.7721795,38.0723958 32.7721795,35.3730255 L32.7721795,28.0148246 L35.8507427,28.0148246 L35.8507427,34.8171634 C35.8507427,36.5553943 36.7218234,37.0015712 37.8627903,37.0015712 C38.8883576,36.9569535 39.7817737,36.3992324 40.2712913,35.4195022 L40.2712913,28.0148246 L43.3312416,28.0148246 L43.3312416,39.1190525 Z" id="Fill-14" fill="#FFFFFF" mask="url(#mask-2)"></path>
                    <path d="M46.1721188,25.8967856 L49.2320692,24.8947466 L49.2320692,28.0161259 L52.6475246,28.0161259 L52.6475246,30.3790045 L49.2320692,30.3790045 L49.2320692,35.3278501 C49.2525433,36.2648216 49.7439222,36.6236222 50.7918248,36.6236222 C51.3074004,36.6236222 51.8862596,36.5548366 52.3776385,36.2648216 L52.3776385,38.8303388 C51.7299118,39.2077301 50.8830277,39.4103688 49.7439222,39.4103688 C47.4899077,39.4103688 46.1721188,38.3618531 46.1721188,35.8632624 L46.1721188,25.8967856 Z" id="Fill-15" fill="#FFFFFF" mask="url(#mask-2)"></path>
                    <path d="M54.8483064,39.1205397 L57.9510663,39.1205397 L57.9510663,28.0163118 L54.8483064,28.0163118 L54.8483064,39.1205397 Z M56.387588,23.4671664 C57.3926812,23.4671664 58.1744203,24.247976 58.1744203,25.2295652 C58.1744203,26.2092954 57.3926812,27.0124138 56.387588,27.0124138 C55.4066915,27.0124138 54.602617,26.2334633 54.602617,25.2295652 C54.602617,24.247976 55.4066915,23.4671664 56.387588,23.4671664 L56.387588,23.4671664 Z" id="Fill-16" fill="#FFFFFF" mask="url(#mask-2)"></path>
                    <path d="M63.4236124,33.4565097 C63.4236124,35.2635262 64.2500224,36.9571394 66.3048795,36.9571394 C68.5142232,36.9571394 69.2289561,35.2170495 69.2289561,33.6554303 C69.2289561,31.8725817 68.3802108,30.1771094 66.3048795,30.1771094 C64.1160099,30.1771094 63.4236124,31.9171994 63.4236124,33.4565097 M60.2538464,33.6349805 C60.2538464,30.2235862 62.5097222,27.6357601 66.3048795,27.6357601 C70.4108712,27.6357601 72.3763867,30.4466747 72.3763867,33.4992684 C72.3763867,36.8902129 70.1223723,39.4984888 66.3048795,39.4984888 C62.239836,39.4538711 60.2538464,36.7117421 60.2538464,33.6349805" id="Fill-17" fill="#FFFFFF" mask="url(#mask-2)"></path>
                    <path d="M74.711181,28.0153823 L77.4342389,28.0153823 L77.4342389,29.8428486 C78.2606489,28.06 79.8464625,27.6361319 81.3634087,27.6361319 C83.6844294,27.6361319 85.2925785,29.0415892 85.2925785,31.7391004 L85.2925785,39.1196102 L82.212154,39.1196102 L82.212154,32.3172714 C82.212154,30.5567316 81.3634087,30.1124138 80.2261644,30.1124138 C79.154065,30.1774813 78.3276551,30.7593703 77.7916054,31.6944828 L77.7916054,39.1196102 L74.711181,39.1196102 L74.711181,28.0153823 Z" id="Fill-18" fill="#FFFFFF" mask="url(#mask-2)"></path>
                    <path d="M87.8857188,35.9091814 C88.9131474,36.399976 91.0108141,37.0023148 92.5277602,37.0023148 C93.4881826,37.0023148 94.2029155,36.6453733 94.2029155,35.95194 C94.2029155,34.1244738 87.7051743,35.8645637 87.7051743,31.3154183 C87.7051743,28.9748486 89.4473358,27.6363178 92.5947665,27.6363178 C94.0912385,27.6363178 95.4518369,27.9709505 96.5016008,28.5063628 L96.5016008,30.9826447 C95.9004062,30.6703208 93.8902199,30.2018351 92.460754,30.2018351 C91.5896733,30.2018351 90.78746,30.2445937 90.78746,31.1815652 C90.78746,32.1185367 92.0587168,32.3416252 93.4881826,32.6297811 C95.6305201,33.0778171 97.3056754,33.5463028 97.3056754,35.9314903 C97.3056754,38.0935892 95.2750149,39.4990465 92.3044062,39.4990465 C90.3854228,39.4990465 89.0229631,39.0510105 87.8857188,38.4282219 L87.8857188,35.9091814 Z" id="Fill-19" fill="#FFFFFF" mask="url(#mask-2)"></path>
                </g>
            </g>
        </g>
    </g>
</svg>