<?xml version="1.0" encoding="UTF-8"?>
<svg width="291px" height="291px" viewBox="0 0 291 291" version="1.1" xmlns="http://www.w3.org/2000/svg" xmlns:xlink="http://www.w3.org/1999/xlink">
    <title>Group</title>
    <defs>
        <linearGradient x1="5.92430172%" y1="73.5897504%" x2="94.0738911%" y2="26.4003938%" id="linearGradient-1">
            <stop stop-color="#FBB040" stop-opacity="0" offset="10%"></stop>
            <stop stop-color="#231F20" offset="60%"></stop>
            <stop stop-color="#231F20" offset="100%"></stop>
        </linearGradient>
        <linearGradient x1="0.978566325%" y1="40.2155586%" x2="99.0347007%" y2="59.7880401%" id="linearGradient-2">
            <stop stop-color="#FBB040" stop-opacity="0" offset="10%"></stop>
            <stop stop-color="#231F20" offset="60%"></stop>
            <stop stop-color="#231F20" offset="100%"></stop>
        </linearGradient>
        <linearGradient x1="11.4113476%" y1="18.624368%" x2="89.0224157%" y2="81.3410031%" id="linearGradient-3">
            <stop stop-color="#FBB040" stop-opacity="0" offset="10%"></stop>
            <stop stop-color="#231F20" offset="60%"></stop>
            <stop stop-color="#231F20" offset="100%"></stop>
        </linearGradient>
        <linearGradient x1="23.0453374%" y1="7.92854094%" x2="76.9670389%" y2="92.0623879%" id="linearGradient-4">
            <stop stop-color="#FBB040" stop-opacity="0" offset="10%"></stop>
            <stop stop-color="#231F20" offset="60%"></stop>
            <stop stop-color="#231F20" offset="100%"></stop>
        </linearGradient>
        <linearGradient x1="47.513594%" y1="0.0631216047%" x2="52.5027805%" y2="99.92843%" id="linearGradient-5">
            <stop stop-color="#FBB040" stop-opacity="0" offset="10%"></stop>
            <stop stop-color="#231F20" offset="60%"></stop>
            <stop stop-color="#231F20" offset="100%"></stop>
        </linearGradient>
        <linearGradient x1="15.7666173%" y1="12.4875088%" x2="82.7490176%" y2="86.4752345%" id="linearGradient-6">
            <stop stop-color="#FBB040" stop-opacity="0" offset="10%"></stop>
            <stop stop-color="#231F20" offset="60%"></stop>
            <stop stop-color="#231F20" offset="100%"></stop>
        </linearGradient>
    </defs>
    <g id="Page-1" stroke="none" stroke-width="1" fill="none" fill-rule="evenodd">
        <g id="main" transform="translate(-14.000000, -974.000000)" fill-rule="nonzero">
            <g id="Group-7" transform="translate(10.000000, 969.000000)">
                <g id="Group" transform="translate(4.746835, 5.696203)">
                    <path d="M144.744342,215.25015 C114.343121,215.236188 87.3764793,195.729873 77.8457013,166.85903 C68.3149234,137.988188 78.3678769,106.259187 102.784992,88.1459645 C127.202108,70.0327419 160.480715,69.6173154 185.342308,87.1153776 C210.203902,104.61344 221.045644,136.081607 212.23842,165.181367 L212.23842,165.181367 C203.199336,194.899494 175.804557,215.221621 144.744342,215.25015 L144.744342,215.25015 Z M144.819253,82.1370928 C112.601622,82.1141695 85.6244612,106.543396 82.4589805,138.607587 C79.2934998,170.671779 100.972904,199.905269 132.572984,206.183579 C164.173064,212.461889 195.379638,193.735795 204.709946,162.896433 L204.709946,162.896433 C210.444791,143.931935 206.868609,123.372044 195.06705,107.458288 C183.265492,91.5445321 164.630502,82.1538735 144.819253,82.1370928 L144.819253,82.1370928 Z" id="Shape" fill="url(#linearGradient-1)"></path>
                    <path d="M144.91289,230.077376 C107.290264,230.141097 74.0662307,205.553085 63.1298007,169.552283 C52.1933707,133.55148 66.1260867,94.6358721 97.4260751,73.7590158 C136.57289,47.625858 189.665484,58.2389417 215.777926,97.3949775 C241.928829,136.60724 231.348166,189.595631 192.143763,215.755832 L192.143763,215.755832 C178.167062,225.104866 161.727739,230.089624 144.91289,230.077376 Z M144.625735,66.1987545 C111.003942,66.2656051 81.1535223,87.7267732 70.380019,119.578231 C59.6065156,151.429689 70.2996001,186.606463 96.9764862,207.071968 C123.653372,227.537472 160.396858,228.752252 188.367041,210.09344 L188.367041,210.09344 C214.783248,192.463206 227.981142,160.656649 221.808003,129.501651 C215.634864,98.3466525 191.306033,73.9768779 160.163356,67.7532591 C155.048009,66.7244123 149.843504,66.2037131 144.625735,66.1987545 Z" id="Shape" fill="url(#linearGradient-2)"></path>
                    <path d="M144.582037,244.97927 C93.4809381,244.86093 50.6505522,206.314415 45.1637354,155.504732 C39.2395882,100.566417 79.1105346,51.0532598 134.038428,45.1286619 C188.804416,39.6443257 237.741133,79.3650587 243.642719,134.091777 C249.544306,188.818495 210.201104,238.060552 155.525167,244.379943 L155.219283,241.526897 L155.525167,244.379943 C151.891029,244.778098 148.237917,244.97927 144.582037,244.97927 Z M144.969073,50.2853719 C141.52411,50.2876545 138.081706,50.473125 134.656437,50.8409981 C82.8747715,56.4284745 45.2885857,103.101071 50.8693946,154.886676 C56.3276187,205.415788 100.785967,242.567558 151.476999,238.959763 C202.168031,235.351969 240.91741,192.278117 239.165416,141.485224 C237.413422,90.6923315 195.788201,50.3912547 144.969073,50.2853719 Z" id="Shape" fill="url(#linearGradient-3)"></path>
                    <path d="M145.012771,259.887531 C136.674981,259.884854 128.361804,258.982726 120.217499,257.196803 C90.3998074,250.681742 64.3923309,232.585251 47.9186243,206.889887 C31.4449177,181.194523 25.8550001,150.006019 32.3790637,120.188135 C45.9253223,58.2389417 107.33919,18.8019714 169.352339,32.3492605 C226.703678,44.9125627 265.403395,98.6377434 259.156019,157.019911 C252.908643,215.402079 203.717418,259.720768 145.006528,259.862559 L145.012771,259.887531 Z M144.76307,34.3844754 C94.0239041,34.3844754 48.2163255,69.6511281 36.948585,121.211986 C30.6974983,149.815057 36.0646724,179.730046 51.8692847,204.375409 C67.673897,229.020772 92.621187,246.377487 121.222544,252.626934 L121.222544,252.626934 C162.502731,261.583352 205.274056,246.194063 231.386828,212.989395 C257.4996,179.784728 262.374129,134.588155 243.941947,96.5785048 C225.509764,58.5688543 187.003528,34.4123036 144.76307,34.3595034 L144.76307,34.3844754 Z" id="Shape" fill="url(#linearGradient-4)"></path>
                    <path d="M144.631977,274.683614 C112.449381,274.739354 81.4093421,262.756631 57.6113113,241.089887 C4.49998953,193.025104 0.386171829,110.680061 48.4535411,57.6146427 C96.5209103,4.54922432 178.803507,0.353934771 231.952284,48.4187178 C270.919203,83.6751164 284.810031,138.936371 267.146419,188.429954 C249.482806,237.923537 203.744017,271.900523 151.261529,274.514858 C149.045436,274.633475 146.835585,274.683614 144.631977,274.683614 Z M144.844223,18.5083142 C109.139439,18.439405 75.0819246,33.5237816 51.1378227,60.011951 C4.4063518,111.653968 8.38283417,191.682861 60.0396498,238.417887 C101.830384,276.286047 163.660142,281.858039 211.546878,252.07146 C259.433614,222.284881 281.772017,164.358482 266.284753,110.128999 C250.797488,55.8995163 201.237882,18.5083142 144.844223,18.5083142 Z" id="Shape" fill="url(#linearGradient-5)"></path>
                    <path d="M144.856708,289.554222 C142.621887,289.554222 140.368339,289.498035 138.114791,289.391904 C58.3728982,285.70854 -3.51540035,217.834748 0.155198756,138.093032 C2.864289,79.6076476 40.5272296,28.5101325 95.5884083,8.61828092 C150.649587,-11.2735707 212.27067,3.95578604 251.728573,47.2075777 C277.692355,75.5250922 291.249163,113.053623 289.377184,151.428059 L289.377184,151.428059 C285.831435,228.922299 221.645891,289.554222 144.856708,289.554222 Z M144.625735,2.52649543 C68.6863549,2.6061114 6.20804844,62.340609 2.71463011,138.205406 C-0.899786361,216.542449 59.8898294,283.22383 138.227156,286.844764 C216.564483,290.465698 283.240791,229.646486 286.855208,151.315685 C290.469624,72.984885 229.667523,6.29101864 151.336439,2.6763272 C149.095376,2.57643935 146.854313,2.52649543 144.625735,2.52649543 Z" id="Shape" fill="url(#linearGradient-6)"></path>
                </g>
            </g>
        </g>
    </g>
</svg>